<?xml version="1.0" encoding="UTF-8" standalone="no"?>
<!-- Created with Inkscape (http://www.inkscape.org/) -->

<svg
   xmlns:dc="http://purl.org/dc/elements/1.1/"
   xmlns:cc="http://creativecommons.org/ns#"
   xmlns:rdf="http://www.w3.org/1999/02/22-rdf-syntax-ns#"
   xmlns:svg="http://www.w3.org/2000/svg"
   xmlns="http://www.w3.org/2000/svg"
   xmlns:sodipodi="http://sodipodi.sourceforge.net/DTD/sodipodi-0.dtd"
   xmlns:inkscape="http://www.inkscape.org/namespaces/inkscape"
   version="1.1"
   id="svg2"
   xml:space="preserve"
   width="491.0694"
   height="721.20514"
   viewBox="0 0 491.0694 721.20517"
   sodipodi:docname="anthrop_Tabelle.svg"
   inkscape:version="0.92.0 r"
   inkscape:export-filename="/home/vfocke/Dokumente/3._Semester/LosCorredors/doc/report/bilder/anhang/anthrop_Tabelle.png"
   inkscape:export-xdpi="200"
   inkscape:export-ydpi="200"><metadata
     id="metadata8"><rdf:RDF><cc:Work
         rdf:about=""><dc:format>image/svg+xml</dc:format><dc:type
           rdf:resource="http://purl.org/dc/dcmitype/StillImage" /><dc:title></dc:title></cc:Work></rdf:RDF></metadata><defs
     id="defs6"><clipPath
       clipPathUnits="userSpaceOnUse"
       id="clipPath20"><path
         d="m 77.371,428.89 h 440.531 v -19 H 77.371 Z"
         id="path18"
         inkscape:connector-curvature="0" /></clipPath><clipPath
       clipPathUnits="userSpaceOnUse"
       id="clipPath4681"><rect
         style="fill:#ffffff;fill-opacity:1;stroke:none;stroke-width:1.41732287;stroke-miterlimit:4;stroke-dasharray:1.41732291, 2.83464582;stroke-dashoffset:0;stroke-opacity:1"
         id="rect4683"
         width="434.25098"
         height="537.90387"
         x="76.962082"
         y="-677.18872"
         ry="1.6389376"
         transform="scale(1,-1)" /></clipPath></defs><sodipodi:namedview
     pagecolor="#ffffff"
     bordercolor="#666666"
     borderopacity="1"
     objecttolerance="10"
     gridtolerance="10"
     guidetolerance="10"
     inkscape:pageopacity="0"
     inkscape:pageshadow="2"
     inkscape:window-width="1913"
     inkscape:window-height="1010"
     id="namedview4"
     showgrid="false"
     fit-margin-top="2"
     fit-margin-left="2"
     fit-margin-right="2"
     fit-margin-bottom="2"
     inkscape:zoom="1"
     inkscape:cx="227.73327"
     inkscape:cy="377.54666"
     inkscape:window-x="0"
     inkscape:window-y="27"
     inkscape:window-maximized="0"
     inkscape:current-layer="g10" /><g
     id="g10"
     inkscape:groupmode="layer"
     inkscape:label="Winter2009_Biomechanics"
     transform="matrix(1.3333333,0,0,-1.3333333,-172.41252,904.91827)"><g
       id="g12" /><g
       id="g14"><g
         id="g16"
         clip-path="url(#clipPath20)"><path
           d="m 51.352,410.734 v 18 m -9.008,-8.993 h 18 m -3,-0.007 c 0,3.316 -2.688,6 -6,6 -3.313,0 -6,-2.684 -6,-6 0,-3.313 2.687,-6 6,-6 3.312,0 6,2.687 6,6 z m 488.886,-9 v 18 m -9.007,-8.993 h 18 m -3,-0.007 c 0,3.316 -2.684,6 -6,6 -3.313,0 -6,-2.684 -6,-6 0,-3.313 2.687,-6 6,-6 3.316,0 6,2.687 6,6 z"
           style="fill:none;stroke:#000000;stroke-width:0.5;stroke-linecap:butt;stroke-linejoin:miter;stroke-miterlimit:4;stroke-dasharray:none;stroke-opacity:1"
           id="path22"
           inkscape:connector-curvature="0" /></g></g><g
       id="g24"
       clip-path="url(#clipPath4681)"><text
         transform="matrix(0,1,1,0,146.92449,139.47518)"
         style="font-variant:normal;font-weight:bold;font-size:9.46450043px;font-family:Times;-inkscape-font-specification:Times-Bold;writing-mode:lr-tb;fill:#231f20;fill-opacity:1;fill-rule:nonzero;stroke:none"
         id="text28"><tspan
           x="0 5.5840549 12.417424 18.730246 25.043068 34.602211 39.334461 41.700588 55.868942 62.702312 67.964577 71.116257 76.406906 80.429321 85.161568 90.423836 95.156082 103.04001 107.27065 110.42233 114.62456 117.25569 124.53389 131.36726 136.0995 139.25119"
           y="0"
           sodipodi:role="line"
           id="tspan26">TABLE4.1AnthropometricData</tspan></text>
<path
         d="m 153.34,677.487 h 1.02 v -538.02 h -1.02 z"
         style="fill:#231f20;fill-opacity:1;fill-rule:nonzero;stroke:none"
         id="path30"
         inkscape:connector-curvature="0" /><text
         transform="matrix(0,1,1,0,168.04439,407.91518)"
         style="font-variant:normal;font-weight:normal;font-size:9.46450043px;font-family:Times;-inkscape-font-specification:Times-Roman;writing-mode:lr-tb;fill:#231f20;fill-opacity:1;fill-rule:nonzero;stroke:none"
         id="text40"><tspan
           x="0 5.2622619 9.4645004 14.225143 21.588524 25.790762 30.523012"
           y="0"
           sodipodi:role="line"
           id="tspan32">Segment</tspan><tspan
           x="52.619781 58.932602 63.134842 67.867088 70.498222 74.700462 81.013283 85.745529 92.048889 100.46283 104.66507 108.34676 112.02845 140.17587 146.48869 150.69093 155.42319 158.05431 162.78656 169.63885 174.37111 180.67447 187.50783 192.24008 195.39177 199.59399 202.22513 204.85626 209.58852 214.32077"
           y="-1.9799734"
           sodipodi:role="line"
           id="tspan34">CenterofMass/RadiusofGyration/</tspan><tspan
           x="-7.9198937 0.23850539 4.4407434 7.0718746 11.804125 16.536375 19.195898 21.82703 26.93786 31.670111 34.301239 38.503479"
           y="12.720288"
           sodipodi:role="line"
           id="tspan36">Weight/Total</tspan><tspan
           x="52.080303 57.342567 61.544804 66.277054 73.640434 77.871063 82.603317 88.367195 94.121613 98.323853 103.0561 107.78835 110.44788 146.92406 152.18633 156.38857 161.1492 168.51259 172.71483 177.44707 183.22041 189.00322 193.20546 197.93771 202.66997 205.32948"
           y="9.7806139"
           sodipodi:role="line"
           id="tspan38">SegmentLengthSegmentLength</tspan></text>
<path
         d="m 182.797,528.991 h 0.539 V 454.05 h -0.539 z"
         style="fill:#231f20;fill-opacity:1;fill-rule:nonzero;stroke:none"
         id="path42"
         inkscape:connector-curvature="0" /><path
         d="m 182.797,639.691 h 0.539 v -106.5 h -0.539 z"
         style="fill:#231f20;fill-opacity:1;fill-rule:nonzero;stroke:none"
         id="path44"
         inkscape:connector-curvature="0" /><text
         transform="matrix(0,1,1,0,193.54449,139.47518)"
         style="font-variant:normal;font-weight:normal;font-size:9.46450043px;font-family:Times;-inkscape-font-specification:Times-Roman;writing-mode:lr-tb;fill:#231f20;fill-opacity:1;fill-rule:nonzero;stroke:none"
         id="text48"><tspan
           x="0 5.2622619 9.4645004 14.19675 21.588524 25.790762 30.523012 99.841011 106.67438"
           y="0"
           sodipodi:role="line"
           id="tspan46">SegmentDe</tspan></text>
<text
         transform="matrix(0,1,1,0,193.54449,250.3518)"
         style="font-variant:normal;font-weight:normal;font-size:9.46450043px;font-family:Times;-inkscape-font-specification:Times-Roman;writing-mode:lr-tb;fill:#231f20;fill-opacity:1;fill-rule:nonzero;stroke:none"
         id="text52"><tspan
           x="0"
           y="0"
           id="tspan50">ﬁ</tspan></text>
<text
         transform="matrix(0,1,1,0,193.54449,255.61406)"
         style="font-variant:normal;font-weight:normal;font-size:9.46450043px;font-family:Times;-inkscape-font-specification:Times-Roman;writing-mode:lr-tb;fill:#231f20;fill-opacity:1;fill-rule:nonzero;stroke:none"
         id="text56"><tspan
           x="0 4.7322502 7.3917747 10.022905 12.654037 17.386286 143.46384 149.77666 154.50891 159.24117 167.16295 175.32135 179.52357 182.15471 186.88696 191.61922 198.42419 203.68645 206.83813 211.57037 216.33102 218.96216 226.32553 230.52777 243.9863 250.81966 253.45079 257.13248 259.79199 263.99423 277.55688 287.04031 291.77255 298.0759 309.05472 314.31699 317.49707 322.22931 326.96158 329.59268 336.98447 341.18671 354.63577 361.46912 364.10025 367.78195 370.44147 374.64371 388.20633 395.0397 399.24194 403.97421 407.6843 410.31543 412.94653"
           y="0"
           sodipodi:role="line"
           id="tspan54">nitionBodyWeightProximalDistalCofGProximalDistalDensity</tspan></text>
<path
         d="m 200.438,677.487 h 0.539 v -538.02 h -0.539 z"
         style="fill:#231f20;fill-opacity:1;fill-rule:nonzero;stroke:none"
         id="path58"
         inkscape:connector-curvature="0" /><text
         transform="matrix(0,1,1,0,213.10449,139.47518)"
         style="font-variant:normal;font-weight:normal;font-size:9.46450043px;font-family:Times;-inkscape-font-specification:Times-Roman;writing-mode:lr-tb;fill:#231f20;fill-opacity:1;fill-rule:nonzero;stroke:none"
         id="text62"><tspan
           x="0 6.8333688 11.035607 15.767857 99.841011 108.41585 111.59592 114.22705 117.90874 123.68208 127.88432 132.61658 135.24771 138.9294 141.56053 146.29277 151.02502 155.75728 159.95952 164.69176 167.35129 174.61057 177.79063 184.09399 191.45737 194.0885 198.82076 203.55301 206.21252"
           y="0"
           sodipodi:role="line"
           id="tspan60">HandWristaxis/knuckleIImiddle</tspan></text>
<text
         transform="matrix(0,1,1,0,213.10449,353.00377)"
         style="font-variant:normal;font-weight:normal;font-size:9.46450043px;font-family:Times;-inkscape-font-specification:Times-Roman;writing-mode:lr-tb;fill:#231f20;fill-opacity:1;fill-rule:nonzero;stroke:none"
         id="text66"><tspan
           x="0"
           y="0"
           id="tspan64">ﬁ</tspan></text>
<text
         transform="matrix(0,1,1,0,213.10449,358.26603)"
         style="font-variant:normal;font-weight:normal;font-size:9.46450043px;font-family:Times;-inkscape-font-specification:Times-Roman;writing-mode:lr-tb;fill:#231f20;fill-opacity:1;fill-rule:nonzero;stroke:none"
         id="text114"><tspan
           x="0 4.7322502 9.4928932 13.695131 46.631592 51.363842 53.729965 58.462215 63.194466 71.068932 102.51 107.24225 109.60838 114.34062 119.07288 134.73662 139.46887 141.83499 146.56725 151.2995 159.16449 177.94206 182.67432 185.04044 189.77269 194.50494 213.16136 217.89362 220.25974 224.99199 229.72424 245.38799 250.12024 252.48636 257.2186 261.95087 269.8064 292.0101 296.74237 299.10849 303.84073"
           y="0"
           sodipodi:role="line"
           id="tspan68">nger0.006M0.5060.494P0.2970.5870.577M1.16</tspan><tspan
           x="-218.79085 -213.52858 -208.79634 -205.64465 -201.44241 -197.21179 -194.0601 -118.99716 -113.21435 -110.58322 -105.85097 -101.11872 -91.162064 -86.959824 -82.227577 -79.596443 -75.914757 -73.283623 -68.52298 -65.891846 -61.159599 -56.957359 -50.644539 -46.962849 -44.331718 -39.599468 -36.968338 -32.207695 -29.576563 46.616447 51.348698 53.714825 58.447075 63.179325 71.053787 102.49486 107.2271 109.59323 114.32548 119.05773 134.73094 139.4632 141.82932 146.56157 151.29382 159.14935 177.93639 182.66864 185.03476 189.76701 194.49927 213.16325 217.89551 220.26163 224.99388 229.72614 245.38988 250.12213 252.48825 257.22049 261.95276 269.81775 292.00632 296.73859 299.10471 303.83694"
           y="10.979766"
           sodipodi:role="line"
           id="tspan70">ForearmElbowaxis/ulnarstyloid0.016M0.4300.570P0.3030.5260.647M1.13</tspan><tspan
           x="-218.79085 -211.95747 -207.22523 -202.49298 -198.26234 -191.95898 -187.75674 -184.60507 -118.9593 -112.12593 -109.4948 -105.29256 -100.53192 -95.799667 -91.067421 -86.335167 -78.943398 -74.741158 -71.589478 -67.387238 -61.670681 -57.468445 -52.736195 -50.105064 -46.394978 -43.763847 -39.561611 -36.930477 -32.169834 -27.437586 -17.471466 -13.269229 -8.5369787 -5.905848 46.665665 51.397915 53.735645 58.467896 63.200146 71.055679 102.49675 107.229 109.59512 114.32738 119.05962 134.73283 139.46509 141.83121 146.56346 151.29572 159.15125 177.93828 182.67053 185.03665 189.76891 194.50116 213.16515 217.8974 220.26352 224.99577 229.72803 245.39177 250.12402 252.49014 257.22238 261.95465 269.81964 292.00726 296.73953 299.10565 303.83789"
           y="21.959534"
           sodipodi:role="line"
           id="tspan72">UpperarmGlenohumeralaxis/elbowaxis0.028M0.4360.564P0.3220.5420.645M1.07</tspan><tspan
           x="-218.79085 -213.52858 -208.79634 -205.64465 -201.44241 -197.21179 -194.0601 -183.62076 -179.41853 -174.68628 -166.82127 -162.08902 -157.8868 -153.15454 -118.99716 -113.21435 -110.58322 -105.85097 -101.11872 -91.133667 -86.931435 -82.199181 -79.568054 -75.88636 -73.255234 -68.494583 -65.863457 -61.131207 -56.928967 -50.616146 -46.934456 -44.303326 -39.571075 -36.939945 -32.179298 -29.548168 46.643894 51.376144 53.742271 58.474522 63.206772 71.081238 102.5223 107.25455 109.62068 114.35293 119.08517 134.74893 139.48117 141.84731 146.57954 151.3118 159.16734 177.95436 182.68661 185.05275 189.78499 194.51724 213.18124 217.91348 220.27962 225.01186 229.74411 245.39839 250.13065 252.49677 257.22903 261.96127 269.82626 292.01389 296.74615 299.11227 303.84451"
           y="32.879673"
           sodipodi:role="line"
           id="tspan74">ForearmandhandElbowaxis/ulnarstyloid0.022M0.6820.318P0.4680.8270.565P1.14</tspan><tspan
           x="-218.79085 -213.68948 -208.95723 -206.3261 -202.12386 -196.34105 -192.13881 -188.98714 -118.9593 -112.12593 -109.4948 -105.29256 -100.53192 -95.799667 -91.067421 -86.306778 -78.943398 -74.741158 -71.589478 -67.358849 -61.661217 -59.030087 -54.297836 -51.638313 -46.906063 -44.274933 -41.643799 -36.883156 -34.252026 -29.519775 -25.289145 -19.052038 -15.370348 -12.739217 -8.0069666 -5.3474426 -0.61519247 2.0159385 46.664719 51.396969 53.763092 58.495342 63.227592 71.08313 102.52419 107.25645 109.62257 114.35482 119.08707 134.75082 139.48306 141.8492 146.58144 151.31369 159.16924 177.95627 182.68851 185.05464 189.78688 194.51913 213.18314 217.91537 220.28151 225.01375 229.746 245.40028 250.13254 252.49866 257.23093 261.96317 269.8187 292.01389 296.74615 299.11227 303.84451"
           y="43.85944"
           sodipodi:role="line"
           id="tspan76">TotalarmGlenohumeraljoint/ulnarstyloid0.050M0.5300.470P0.3680.6450.596P1.11</tspan><tspan
           x="-218.79085 -213.52858 -208.79634 -204.06409 -118.97823 -113.19542 -108.99318 -106.36205 -102.15981 -99.008133 -94.805893 -89.023087 -81.659706 -77.457466 -74.797943 -72.166809 -67.964577 -63.232323 -60.601192 -55.868942 -52.187252 -49.556122 -44.823872 -40.621635 -36.391003 -28.535467 -21.172087 -16.969849 -14.338717 -10.136479 -7.5053487 -3.3031106 -0.1230385 3.5586519 7.76089 13.543699 16.695377 46.62402 51.35627 53.722393 58.454643 63.186893 67.919144 75.784142 102.4835 107.21575 109.58187 114.31413 134.72905 139.4613 141.82742 146.55968 154.42467 177.95341 182.68567 185.0518 189.78404 194.5163 213.1803 217.91254 220.27867 225.01091 229.74316 245.40691 250.13916 252.50529 257.23755 261.96979 269.83478 292.02527 296.75751 299.12363 303.85587"
           y="54.779579"
           sodipodi:role="line"
           id="tspan78">FootLateralmalleolus/headmetatarsalII0.0145M0.500.50P0.4750.6900.690P1.10</tspan><tspan
           x="-218.79085 -213.00804 -208.8058 -118.92144 -113.65918 -109.42855 -102.06517 -97.332916 -94.181236 -89.979004 -84.262444 -80.060204 -75.327957 -70.595703 -65.863457 -61.131207 -58.500076 -54.269444 -50.587753 -47.956623 -40.593239 -36.391003 -31.658752 -29.027622 -24.796989 -19.042574 -11.679193 -7.4485617 -4.8174305 -2.1862996 2.0159385 6.7481885 9.3793192 14.111569 46.643894 51.376144 53.742271 58.474522 63.206772 67.939018 75.794556 102.49391 107.22616 109.59229 114.32453 119.05679 134.73 139.46225 141.82837 146.56062 151.29288 159.15787 177.93544 182.66769 185.03381 189.76607 194.49832 213.17177 217.90402 220.27014 225.0024 229.73465 245.39839 250.13065 252.49677 257.22903 261.96127 269.82626 292.03 296.76224 299.12836 303.86063"
           y="65.759346"
           sodipodi:role="line"
           id="tspan80">LegFemoralcondyles/medialmalleolus0.0465M0.4330.567P0.3020.5280.643M1.09</tspan><tspan
           x="-218.79085 -213.00804 -208.27579 -205.64465 -200.88402 -118.92144 -112.08807 -108.93639 -104.73415 -100.50352 -97.872391 -93.670158 -87.423584 -84.792458 -81.640778 -76.880135 -72.677895 -67.945648 -63.743408 -59.011158 -56.351631 -52.149395 -48.997715 -46.366585 -43.186512 -38.984276 -31.620895 -26.888645 -23.708572 -19.506334 -13.856028 -9.6537905 -4.9215398 -0.18929 4.5713534 9.3036032 11.934734 16.136972 46.651466 51.383717 53.749844 58.482094 63.21434 71.079338 102.52041 107.25266 109.61878 114.35104 119.08328 134.74704 139.47928 141.84541 146.57765 151.30991 159.17491 177.95247 182.68472 185.05086 189.7831 194.51535 213.18881 217.92107 220.28719 225.01944 229.75168 245.40596 250.13821 252.50435 257.2366 261.96884 269.83383 292.02527 296.75751 299.12363 303.85587"
           y="76.739113"
           sodipodi:role="line"
           id="tspan82">ThighGreatertrochanter/femoralcondyles0.100M0.4330.567P0.3230.5400.653M1.05</tspan><tspan
           x="-218.79085 -213.52858 -208.79634 -204.06409 -198.28128 -194.07904 -189.34679 -181.48178 -178.85066 -174.64842 -118.94984 -113.68758 -109.48534 -102.12196 -97.389702 -94.209633 -90.007393 -84.300301 -80.098061 -75.365814 -70.63356 -65.901314 -61.169064 -58.509541 -54.307301 -50.62561 -47.99448 -40.602703 -36.400467 -31.668217 -29.037086 -24.834848 -19.052038 -11.688658 -7.4864197 -4.8268952 -2.1957641 2.006474 6.7387242 9.4077129 14.139963 46.659985 51.392235 53.758362 58.490608 63.222858 71.067986 102.50906 107.2413 109.60743 114.33968 119.07193 134.74513 139.47739 141.84352 146.57576 151.30801 159.16354 177.94112 182.67337 185.03949 189.77174 194.504 213.17744 217.9097 220.27583 225.00807 229.74033 245.40407 250.13632 252.50246 257.23471 261.96695 269.82248 292.01862 296.75089 299.117 303.84924"
           y="87.659256"
           sodipodi:role="line"
           id="tspan84">FootandlegFemoralcondyles/medialmalleolus0.061M0.6060.394P0.4160.7350.572P1.09</tspan><tspan
           x="-218.79085 -213.68948 -208.95723 -206.3261 -202.12386 -196.34105 -193.70992 -189.50769 -118.94037 -112.107 -108.95532 -104.75308 -100.52245 -97.891327 -93.689087 -87.433052 -84.801918 -81.650238 -76.917992 -72.715752 -67.955109 -63.752872 -59.020622 -56.389492 -52.187252 -49.007179 -46.376049 -39.012669 -34.810432 -30.07818 -27.418657 -23.216419 -17.509325 -10.145944 -5.943706 -3.2841816 -0.65305048 3.5491874 8.2814379 10.959891 15.692141 46.64484 51.37709 53.743217 58.475468 63.207718 71.072716 102.51379 107.24603 109.61216 114.34441 119.07666 134.7404 139.47266 141.83878 146.57103 151.30328 159.16829 177.94585 182.6781 185.04422 189.77647 194.50873 213.18219 217.91443 220.28056 225.0128 229.74506 245.39934 250.13159 252.49771 257.22998 261.96222 269.82721 292.01862 296.75089 299.117 303.84924"
           y="98.639015"
           sodipodi:role="line"
           id="tspan86">TotallegGreatertrochanter/medialmalleolus0.161M0.4470.553P0.3260.5600.650P1.06</tspan><tspan
           x="-218.79085 -211.95747 -207.75523 -203.55301 -195.688 -191.48576 -186.75351 -178.83173 -174.09947 -169.89723 -165.69501 -118.94984 -112.63702 -107.05296 -101.47837 -95.695557 -87.792702 -83.590462 -78.858215 -71.002678 -66.270432 -62.588737 -56.76807 -53.587997 -50.956867 -46.224617 -43.593487 -39.391251 -35.189011 -28.942442 -24.740204 -20.537966 -15.805715 -11.603477 46.643894 51.376144 53.742271 58.474522 63.206772 71.07177 102.51284 107.24509 109.61121 114.34346 119.07571 140.61691 154.12276 159.38503 177.9449 182.67715 185.04327 189.77553 194.50778 213.17177 217.90402 220.27014 225.0024 229.73465 251.27585 264.78168 270.04395 292.01294 296.74521 299.11133 303.84357"
           y="109.61879"
           sodipodi:role="line"
           id="tspan88">HeadandneckC7–T1and1strib/earcanal0.081M1.000—PC0.4950.116—PC1.11</tspan><tspan
           x="-218.79085 -213.52858 -208.79634 -204.06409 -199.33183 -196.67232 -191.94006 -187.73782 -181.49126 -174.12787 -169.92563 -166.21555 -118.94037 -113.67811 -111.01859 -106.81635 -103.66467 -98.932419 -94.200165 -89.969536 -87.338409 -83.136169 -78.403915 -75.772789 -71.570549 -66.809906 -64.178772 -59.976536 -53.786755 -51.155624 -46.423374 -43.79224 -39.05999 -36.400467 -33.769337 -29.037086 -26.405954 -22.203716 -17.471466 -12.710823 -7.9785733 -3.2463236 4.1170573 8.3192959 11.499368 15.701606 21.342447 25.544685 30.276936 32.908066 61.424606 102.45132 107.18357 109.5497 114.28194 119.0142 134.69687 139.42912 141.79524 146.5275 151.25975 183.85548 220.644 260.17722 291.97794 296.71017 299.07629 303.80856"
           y="120.53893"
           sodipodi:role="line"
           id="tspan90">ShouldermassSternoclavicularjoint/glenohumeralaxis—0.7120.288———1.04</tspan><tspan
           x="-218.79085 -213.00804 -208.27579 -203.54353 -200.39186 -196.18962 -118.9593 -112.64648 -107.06242 -101.47837 -95.723953 -90.991699 -88.360573 -82.577759 -77.845512 -72.251991 -66.611153 -60.828342 -52.972805 -48.770569 -44.038319 -36.107067 -31.374817 -28.743687 -24.541449 -19.809198 -15.076948 -11.92527 -7.723032 -2.990782 4.3725991 47.406734 52.138985 54.505108 59.237358 63.969608 71.900864 77.163124 102.48066 107.21291 109.57903 114.31129 134.71675 139.44899 141.81512 146.54738 183.87537 220.6544 260.19708 291.9978 296.73007 299.09619 303.82843"
           y="131.51869"
           sodipodi:role="line"
           id="tspan92">ThoraxC7–T1/T12–L1anddiaphragm*0.216PC0.820.18———0.92</tspan><tspan
           x="-218.79085 -211.95747 -207.22523 -202.49298 -197.76073 -190.39735 -186.19511 -118.99716 -113.21435 -108.4821 -102.90751 -97.323456 -91.540642 -86.808395 -84.205658 -78.422844 -72.838791 -67.197952 -61.415142 -56.682892 47.147408 51.879658 54.245781 58.978031 63.710281 71.565819 77.348625 102.4958 107.22805 109.59418 114.32643 134.72243 139.45468 141.8208 146.55305 183.87157 220.64494 260.18762 297.14648"
           y="142.49846"
           sodipodi:role="line"
           id="tspan94">AbdomenT12–L1/L4–L5*0.139LC0.440.56————</tspan><tspan
           x="-218.79085 -213.52858 -209.32634 -206.69522 -201.96297 -199.33183 -118.97823 -113.19542 -107.61137 -102.02731 -96.272896 -91.540642 -88.909515 -84.177261 -81.025581 -76.823349 -72.621109 -69.961586 -65.759346 -59.45599 -56.82486 -53.67318 -48.940929 -44.738693 -40.006443 -35.804203 -31.071953 -28.440823 -24.210192 -21.058512 47.094406 51.826656 54.19278 58.92503 63.65728 71.531746 77.314552 102.46173 107.19398 109.5601 114.29236 119.0246 134.69781 139.43007 141.79619 146.52844 151.2607 183.85643 220.63548 260.16681 297.12567"
           y="153.41859"
           sodipodi:role="line"
           id="tspan96">PelvisL4–L5/greatertrochanter*0.142LC0.1050.895————</tspan><tspan
           x="-218.79085 -213.00804 -208.27579 -203.54353 -200.39186 -196.18962 -188.33409 -184.13185 -179.3996 -171.53459 -167.33237 -162.60011 -157.86786 -153.1356 -145.77223 -141.56999 -119.01609 -112.70326 -107.12868 -101.54462 -95.76181 -91.029564 -88.426826 -82.644012 -77.059959 -71.419121 -65.636307 -60.932449 47.123745 51.855995 54.222122 58.954372 63.686619 71.542152 77.324966 102.47215 107.20439 109.57052 114.30276 134.69876 139.43102 141.79713 146.52939 183.84792 220.62128 260.16397 297.12283"
           y="164.39838"
           sodipodi:role="line"
           id="tspan98">ThoraxandabdomenC7–T1/L4–L5*0.355LC0.630.37————</tspan><tspan
           x="-218.79085 -211.95747 -207.22523 -202.49298 -197.76073 -190.36896 -186.16672 -178.30171 -174.09947 -169.36723 -161.50223 -156.76997 -152.56773 -149.93661 -145.17596 -142.54483 -118.9593 -113.20489 -108.47263 -102.88858 -97.304527 -91.521713 -86.789467 -84.158333 -79.426086 -76.274406 -72.072166 -67.869926 -65.2388 -61.03656 -54.714275 -52.083145 -48.931465 -44.199215 -39.996979 -35.264729 -31.034096 -26.301846 -23.670715 -19.468477 -16.316797 47.360359 52.092609 54.458733 59.190983 63.923233 71.863945 77.126213 102.44186 107.1741 109.54023 114.27248 134.68741 139.41966 141.78578 146.51804 183.85548 220.63454 260.17154 291.97226 296.7045 299.07062 303.80289"
           y="175.37813"
           sodipodi:role="line"
           id="tspan100">AbdomenandpelvisT12–L1/greatertrochanter*0.281PC0.270.73———1.01</tspan><tspan
           x="-218.79085 -213.38661 -210.20654 -205.47429 -200.74205 -118.9593 -112.12593 -108.97425 -104.77202 -100.54138 -97.910255 -93.708015 -87.461441 -84.830315 -81.678635 -76.946388 -72.744148 -67.983505 -63.781265 -59.049015 -56.417885 -52.215645 -49.063969 -46.404442 -41.672192 -39.041061 -34.838825 -30.106575 -25.374325 -20.613682 -15.881431 -8.5180502 -4.3158121 -1.1641335 3.066498 8.697876 11.329006 16.061256 18.692387 23.453032 26.084162 46.535053 51.267303 53.63343 58.365677 63.097927 70.981857 102.42293 107.15517 109.5213 114.25355 134.66847 139.40073 141.76685 146.4991 183.83655 220.61276 260.15546 291.95618 296.68842 299.05453 303.78677"
           y="186.29826"
           sodipodi:role="line"
           id="tspan102">TrunkGreatertrochanter/glenohumeraljoint*0.497M0.500.50———1.03</tspan><tspan
           x="-218.79085 -213.38661 -210.20654 -205.47429 -200.74205 -192.87704 -188.14479 -183.94255 -179.74033 -171.79961 -167.06735 -162.86511 -158.66287 -118.92144 -112.08807 -108.93639 -104.73415 -100.53192 -97.872391 -93.670158 -87.423584 -84.792458 -81.640778 -76.908524 -72.706291 -67.945648 -63.743408 -59.011158 -56.380028 -52.149395 -48.997715 -46.366585 -41.634335 -39.003204 -34.772572 -30.040323 -25.308073 -20.575823 -15.843573 -8.4517984 -4.2495604 -1.097882 3.1043561 8.8019848 11.433116 16.165365 18.796497 23.528748 26.159878 46.631592 51.363842 53.729965 58.462215 63.194466 71.059464 79.473404 102.51 107.24225 109.60838 114.34062 134.73094 139.4632 141.82932 146.56157 154.42657 177.94585 182.6781 185.04422 189.77647 194.50873 213.18219 217.91443 220.28056 225.0128 229.74506 245.40881 250.14105 252.50719 257.23944 261.97168 269.83667 297.19855"
           y="197.27805"
           sodipodi:role="line"
           id="tspan104">TrunkheadneckGreatertrochanter/glenohumeraljoint*0.578MC0.660.34P0.5030.8300.607M—</tspan><tspan
           x="-218.79085 -211.95747 -207.75523 -203.55301 -198.82076 -193.29349 -189.09125 -185.93956 -178.57619 -174.8945 -169.42401 -165.22177 -160.48953"
           y="208.2578"
           sodipodi:role="line"
           id="tspan106">Head,arms,and</tspan><tspan
           x="-209.3112 -206.68007 -203.5 -198.76775 -194.00711 -186.20836 -183.05669 -176.19492 -170.44051 -164.6577"
           y="219.17793"
           sodipodi:role="line"
           id="tspan108">trunk(HAT)</tspan><tspan
           x="-118.95173 -112.11836 -108.96668 -104.76444 -100.53381 -97.902679 -93.700439 -87.444405 -84.813278 -81.661598 -76.900955 -72.698715 -67.966469 -63.764229 -59.003586 -56.372456 -52.170216 -48.990147 -46.359013 -41.626762 -38.995632 -34.765003 -30.032751 -25.300501 -20.568251 -15.807608 -8.4442272 -4.2419891 -1.0619169 3.140321 8.7811632 11.412294 16.144545 18.80407 23.536318 26.16745 46.658092 51.390343 53.756466 58.488716 63.220966 71.095428 79.509369 102.54597 107.27821 109.64434 114.37659 119.10884 134.78206 139.5143 141.88043 146.61267 151.34492 159.20993 164.47218 177.97803 182.71028 185.0764 189.80865 194.54091 213.21437 217.94661 220.31274 225.04498 229.77724 245.44098 250.17323 252.53937 257.27161 262.00388 269.87833 275.14059 295.57916"
           y="208.2578"
           sodipodi:role="line"
           id="tspan110">Greatertrochanter/glenohumeraljoint*0.678MC0.6260.374PC0.4960.7980.621PC—</tspan><tspan
           x="-218.79179 -211.95842 -206.19455 -118.95078 -112.11742 -108.96574 -104.7635 -100.56126 -97.901733 -93.699493 -87.452927 -84.821793 -81.67012 -76.937866 -72.735626 -68.00338 -63.772747 -59.040497 -56.409367 -52.207127 -49.05545 -46.42432 -39.032543 -36.401413 -28.593201 -25.441523 -22.810392 47.327232 52.059483 54.425606 59.157856 63.890106 102.42955 107.1618 109.52792 114.26018 119.02082 147.93486 177.88054 182.61279 184.97893 189.71117 194.44342 213.12634 217.8586 220.22472 224.95697 229.68922 260.181 297.13986"
           y="230.15771"
           sodipodi:role="line"
           id="tspan112">HATGreatertrochanter/midrib0.6781.142—0.9031.456——</tspan></text>
<path
         d="m 450.16,677.487 h 1.02 v -538.02 h -1.02 z"
         style="fill:#231f20;fill-opacity:1;fill-rule:nonzero;stroke:none"
         id="path116"
         inkscape:connector-curvature="0" /><text
         transform="matrix(0,1,1,0,461.3245,139.95518)"
         style="font-variant:normal;font-weight:normal;font-size:6.13950014px;font-family:Times;-inkscape-font-specification:Times-Roman;writing-mode:lr-tb;fill:#231f20;fill-opacity:1;fill-rule:nonzero;stroke:none"
         id="text120"><tspan
           x="0"
           y="0"
           id="tspan118">*</tspan></text>
<text
         transform="matrix(0,1,1,0,464.3845,143.55518)"
         style="font-variant:normal;font-weight:normal;font-size:8.46819973px;font-family:Times;-inkscape-font-specification:Times-Roman;writing-mode:lr-tb;fill:#231f20;fill-opacity:1;fill-rule:nonzero;stroke:none"
         id="text124"><tspan
           x="0 6.1140404 12.228081 17.427555 22.601625 27.767227 32.941299 37.200802 40.960682 44.254814 50.8092 54.103329 57.863209 62.122715 68.710976 72.470856 76.730362 79.084518 85.147751 88.933037 91.752945 98.298866 102.53297 105.35287 109.13816 112.43229 116.19217 120.45168 122.80584 126.56572 133.54352 136.36342 140.12331 142.47746 146.27122 148.62538 150.97954 155.23904 161.77649 164.13065 171.19313 173.54729 177.78139 184.37811 186.73228 190.49216 194.75166 198.98576 201.33992 208.31772 212.59416 216.35403 218.73361 224.84764 228.63293 232.39281 239.42142 241.77557 246.03508 252.58101 256.84052 259.66043 263.44571 267.2056 269.58514 273.34503 278.93405 281.28821 284.13351 288.36761 292.15289 296.38699 300.17227 304.40637 306.78595 310.54584 316.08405 319.8439 324.10342 331.12357 333.47772 337.71182 344.30853 348.54263 350.92221 354.6821 358.94159 363.17569 367.43521 371.66931 378.28296 382.04285 384.88815 388.64804 393.64429 395.99844 400.25793 402.61209 406.87161 409.22577"
           y="0"
           sodipodi:role="line"
           id="tspan122">NOTE:Thesesegmentsarepresentedrelativetothelengthbetweenthegreatertrochanterandtheglenohumeraljoint.</tspan></text>
<text
         transform="matrix(0,1,1,0,474.34479,139.4752)"
         style="font-style:italic;font-variant:normal;font-size:8.46819973px;font-family:Times;-inkscape-font-specification:Times-Italic;writing-mode:lr-tb;fill:#231f20;fill-opacity:1;fill-rule:nonzero;stroke:none"
         id="text128"><tspan
           x="0 4.2340999 8.5020723 12.761578 15.75932 19.519201 25.777201 31.425489 35.701931 39.936031 43.729786 47.023914"
           y="0"
           sodipodi:role="line"
           id="tspan126">SourceCodes:</tspan></text>
<text
         transform="matrix(0,1,1,0,474.34479,192.69784)"
         style="font-variant:normal;font-weight:normal;font-size:8.46819973px;font-family:Times;-inkscape-font-specification:Times-Roman;writing-mode:lr-tb;fill:#231f20;fill-opacity:1;fill-rule:nonzero;stroke:none"
         id="text132"><tspan
           x="0 7.5282297 12.575277 18.689318 22.449198 29.062862 33.296963 36.591091 38.945251 42.730537 48.370358 52.604458 54.958618 61.631561 69.134384 71.488541 73.842705 76.196861 79.982147 85.799805 89.585091 93.819191 100.90707 107.02111 110.78099 113.13515 116.45469 120.68879 124.92289"
           y="0"
           sodipodi:role="line"
           id="tspan130">M,DempsterviaMillerandNelson;</tspan></text>
<text
         transform="matrix(0,1,1,0,474.34479,322.84561)"
         style="font-style:italic;font-variant:normal;font-size:8.46819973px;font-family:Times;-inkscape-font-specification:Times-Italic;writing-mode:lr-tb;fill:#231f20;fill-opacity:1;fill-rule:nonzero;stroke:none"
         id="text136"><tspan
           x="0 5.1740704 7.5621028 11.796203 17.944117 21.703997 25.489283 29.723383 33.991356 38.225456 40.613487 44.373367 50.148682 54.382782 59.31974 63.553841 67.821815 72.055916 75.383919"
           y="0"
           sodipodi:role="line"
           id="tspan134">BiomechanicsofSport</tspan></text>
<text
         transform="matrix(0,1,1,0,474.34479,401.38816)"
         style="font-variant:normal;font-weight:normal;font-size:8.46819973px;font-family:Times;-inkscape-font-specification:Times-Roman;writing-mode:lr-tb;fill:#231f20;fill-opacity:1;fill-rule:nonzero;stroke:none"
         id="text140"><tspan
           x="0 4.9793015 10.153372 13.913253 20.577726 24.337606 28.597111 35.676525 40.35944 44.119324 48.378826 50.732986 55.000957 58.760841 61.606155 66.585457 71.268372 75.502472 77.890503 80.244659 84.029945 88.264046 92.0578 94.411964 98.671463 102.90556 105.28513 109.04501 114.04125 118.27535 122.54332 126.77742 131.03693 135.95695 140.63986 145.73772 151.85176 155.64552 162.23378 166.49329 169.78741 172.17545 175.93532 181.58362 185.81772 188.20575 194.86176 199.54466 201.89882 205.69258 209.92668 213.71196 217.94606 222.20557 226.43967 230.23343 233.05333"
           y="0"
           sodipodi:role="line"
           id="tspan138">,LeaandFebiger,Philadelphia,1973.P,DempsterviaPlagenhoef;</tspan></text>
<text
         transform="matrix(0,1,1,0,474.34479,639.59863)"
         style="font-style:italic;font-variant:normal;font-size:8.46819973px;font-family:Times;-inkscape-font-specification:Times-Italic;writing-mode:lr-tb;fill:#231f20;fill-opacity:1;fill-rule:nonzero;stroke:none"
         id="text146"><tspan
           x="0 5.1740704 9.4081697 11.76233 14.141894 17.901775 21.195904 25.430004 31.264595 35.524097"
           y="0"
           sodipodi:role="line"
           id="tspan142">Patternsof</tspan><tspan
           x="-500.12341 -494.00937 -489.74988 -483.63583 -479.37634 -473.01672 -465.96271 -461.70319 -459.34903 -456.96948 -452.73538"
           y="9.9602966"
           sodipodi:role="line"
           id="tspan144">HumanMotion</tspan></text>
<text
         transform="matrix(0,1,1,0,484.30509,191.80021)"
         style="font-variant:normal;font-weight:normal;font-size:8.46819973px;font-family:Times;-inkscape-font-specification:Times-Roman;writing-mode:lr-tb;fill:#231f20;fill-opacity:1;fill-rule:nonzero;stroke:none"
         id="text150"><tspan
           x="0 4.496614 9.1795292 11.999439 15.75932 20.018826 22.372984 24.727144 28.487024 32.272308 35.09222 41.206261 44.991547 47.345707 49.699867 54.281162 57.101074 61.335171 65.095055 69.676346 74.850418 79.084518 83.344025 85.698181 89.458061 95.572105 99.831612 104.06571 110.67937 116.32766 118.68182 121.06139 123.695 126.51491 129.80904 134.5089 140.62292 143.91705 148.48988 152.72398 156.95808 161.21759 165.45169 169.95677 175.13084 179.76295 185.87698 189.63687 196.259 200.4931 203.78723 206.16679 209.92668 215.16002 219.41953 221.7737 228.02322 232.70613 235.0603 238.82018 243.05428 246.81416 251.07365 255.30775 259.56726 263.32715 268.49274 271.31265 274.15799 278.39209 287.46152 289.81567 292.16983 296.43781 298.79196 303.02606 309.70749 313.00162 317.23572 321.49521 323.84937 327.60925 331.39453 333.74869 337.06824"
           y="0"
           sodipodi:role="line"
           id="tspan148">,Prentice-Hall,Inc.EnglewoodCliffs,NJ,1971.L,DempsterviaPlagenhoeffromlivingsubjects;</tspan></text>
<text
         transform="matrix(0,1,1,0,484.30509,533.69532)"
         style="font-style:italic;font-variant:normal;font-size:8.46819973px;font-family:Times;-inkscape-font-specification:Times-Italic;writing-mode:lr-tb;fill:#231f20;fill-opacity:1;fill-rule:nonzero;stroke:none"
         id="text154"><tspan
           x="0 5.1740704 9.4081697 11.796203 14.150362 17.910242 21.229778 25.463877 30.934334 35.19384 39.698921 45.812962 50.047062 56.186508 60.420609 66.788696 73.842705 78.076805 80.464836 82.818993 87.053093"
           y="0"
           sodipodi:role="line"
           id="tspan152">PatternsofHumanMotion</tspan></text>
<text
         transform="matrix(0,1,1,0,484.30509,625.67691)"
         style="font-variant:normal;font-weight:normal;font-size:8.46819973px;font-family:Times;-inkscape-font-specification:Times-Roman;writing-mode:lr-tb;fill:#231f20;fill-opacity:1;fill-rule:nonzero;stroke:none"
         id="text160"><tspan
           x="0 4.5050826 9.1795292 11.999439 15.75932 19.99342 22.34758 24.727144 28.487024 32.246906 35.066814 41.180855 44.940739 47.294895 49.674461"
           y="0"
           sodipodi:role="line"
           id="tspan156">,Prentice-Hall,</tspan><tspan
           x="-486.20169 -483.38181 -479.14771 -475.35394 -473.23688 -468.3338 -463.15973 -458.92563 -454.69153 -452.33737 -448.55209 -442.43805 -438.20395 -433.93597 -426.9751 -421.32681 -418.97266 -416.59311 -413.95102 -411.1311 -407.81158 -402.83228 -396.71823 -393.4241 -388.48715 -384.25305 -379.99353 -375.75943 -371.52533 -366.64764 -360.99936 -356.07086 -350.42258 -346.6373 -344.28314 -340.52325 -336.26376 -333.90961 -330.1243 -327.77014 -324.01025 -319.74231"
           y="9.9602966"
           sodipodi:role="line"
           id="tspan158">Inc.,EnglewoodCliffs,NJ,1971.C,Calculated.</tspan></text>
<text
         transform="matrix(1,0,0,-1,130.54439,117.99518)"
         style="font-variant:normal;font-weight:bold;font-size:9.46450043px;font-family:Times;-inkscape-font-specification:Times-Bold;writing-mode:lr-tb;fill:#231f20;fill-opacity:1;fill-rule:nonzero;stroke:none"
         id="text164"><tspan
           x="0 4.7322502"
           y="0"
           sodipodi:role="line"
           id="tspan162">86</tspan></text>
</g></g></svg>